<svg xmlns="http://www.w3.org/2000/svg" viewBox="0 0 1200 300" width="1200" height="300" role="img" aria-label="GitHub activity: 9083 contributions in the last year">
  <style>
    text { font-family: 'JetBrains Mono','SF Mono',Menlo,Consolas,'Liberation Mono',monospace; }
    .blink { animation: blink 1.1s steps(1) infinite; }
    @keyframes blink { 50% { opacity: 0; } }
    @media (prefers-reduced-motion: reduce) {
      * { animation: none !important; opacity: 1 !important; }
    }
    .bar { transform-box: fill-box; transform-origin: left; animation: grow 1.2s cubic-bezier(.2,.8,.2,1) both; }
    @keyframes grow { from { transform: scaleX(0); } }
  </style>
  <defs>
    <filter id="glow" x="-20%" y="-50%" width="140%" height="200%">
      <feGaussianBlur stdDeviation="2.4" result="b"/>
      <feMerge><feMergeNode in="b"/><feMergeNode in="SourceGraphic"/></feMerge>
    </filter>
    <filter id="glow-soft" x="-10%" y="-50%" width="120%" height="200%">
      <feGaussianBlur stdDeviation="1.2" result="b"/>
      <feMerge><feMergeNode in="b"/><feMergeNode in="SourceGraphic"/></feMerge>
    </filter>
    <pattern id="grid" width="24" height="24" patternUnits="userSpaceOnUse">
      <path d="M24 0H0V24" fill="none" stroke="#05D9E8" stroke-opacity=".07"/>
    </pattern>
    <pattern id="scan" width="4" height="4" patternUnits="userSpaceOnUse">
      <rect width="4" height="1" fill="#000" fill-opacity="0.35"/>
    </pattern>
    <pattern id="hazard" width="16" height="16" patternUnits="userSpaceOnUse" patternTransform="rotate(45)">
      <rect width="8" height="16" fill="#FFB000"/>
    </pattern>
  </defs>
  
  <rect width="1200" height="300" fill="#23272E"/>
  <rect width="1200" height="300" fill="url(#grid)"/>
  <path d="M10 28V10H28M1172 10H1190V28M1190 272V290H1172M28 290H10V272"
        fill="none" stroke="#05D9E8" stroke-width="2" filter="url(#glow-soft)"/>
  <text x="38" y="23" font-size="11" fill="#5B6371" letter-spacing="2">SYS.STATUS — PILOT TELEMETRY</text>
  <text x="1162" y="23" font-size="11" fill="#5B6371" letter-spacing="2" text-anchor="end">UPDATED 2026-10-09</text>
  
    <g transform="translate(40 70)">
      <text font-size="10" fill="#5B6371" letter-spacing="1.5">CONTRIBUTIONS / 1Y</text>
      <text y="36" font-size="28" font-weight="700" fill="#FF2A6D" filter="url(#glow-soft)">9,083</text>
      <rect y="48" width="120" height="3" fill="#FF2A6D" class="bar" style="animation-delay:0s"/>
    </g>
    <g transform="translate(180 70)">
      <text font-size="10" fill="#5B6371" letter-spacing="1.5">ACTIVE DAYS</text>
      <text y="36" font-size="28" font-weight="700" fill="#05D9E8" filter="url(#glow-soft)">320/370</text>
      <rect y="48" width="120" height="3" fill="#05D9E8" class="bar" style="animation-delay:0.15s"/>
    </g>
    <g transform="translate(320 70)">
      <text font-size="10" fill="#5B6371" letter-spacing="1.5">PULL REQUESTS</text>
      <text y="36" font-size="28" font-weight="700" fill="#D1F7FF" filter="url(#glow-soft)">130</text>
      <rect y="48" width="120" height="3" fill="#D1F7FF" class="bar" style="animation-delay:0.3s"/>
    </g>
    <g transform="translate(460 70)">
      <text font-size="10" fill="#5B6371" letter-spacing="1.5">REVIEWS</text>
      <text y="36" font-size="28" font-weight="700" fill="#D1F7FF" filter="url(#glow-soft)">3</text>
      <rect y="48" width="120" height="3" fill="#D1F7FF" class="bar" style="animation-delay:0.44999999999999996s"/>
    </g>
  <g transform="translate(40 170)">
    <text font-size="10" fill="#5B6371" letter-spacing="1.5">SYNC ACTIVITY — LAST 12 WEEKS</text>
    <g transform="translate(0 14)"><rect x="0" y="56" width="4" height="14" fill="#05D9E8" fill-opacity="0.9"/><rect x="6" y="50" width="4" height="20" fill="#05D9E8" fill-opacity="0.9"/><rect x="12" y="63" width="4" height="7" fill="#05D9E8" fill-opacity="0.9"/><rect x="18" y="41" width="4" height="29" fill="#05D9E8" fill-opacity="0.9"/><rect x="24" y="61" width="4" height="9" fill="#05D9E8" fill-opacity="0.9"/><rect x="30" y="39" width="4" height="31" fill="#05D9E8" fill-opacity="0.9"/><rect x="36" y="56" width="4" height="14" fill="#05D9E8" fill-opacity="0.9"/><rect x="42" y="62" width="4" height="8" fill="#05D9E8" fill-opacity="0.9"/><rect x="48" y="61" width="4" height="9" fill="#05D9E8" fill-opacity="0.9"/><rect x="54" y="58" width="4" height="12" fill="#05D9E8" fill-opacity="0.9"/><rect x="60" y="53" width="4" height="17" fill="#05D9E8" fill-opacity="0.9"/><rect x="66" y="53" width="4" height="17" fill="#05D9E8" fill-opacity="0.9"/><rect x="72" y="58" width="4" height="12" fill="#05D9E8" fill-opacity="0.9"/><rect x="78" y="66" width="4" height="4" fill="#05D9E8" fill-opacity="0.9"/><rect x="84" y="52" width="4" height="18" fill="#05D9E8" fill-opacity="0.9"/><rect x="90" y="31" width="4" height="39" fill="#05D9E8" fill-opacity="0.9"/><rect x="96" y="51" width="4" height="19" fill="#05D9E8" fill-opacity="0.9"/><rect x="102" y="63" width="4" height="7" fill="#05D9E8" fill-opacity="0.9"/><rect x="108" y="55" width="4" height="15" fill="#05D9E8" fill-opacity="0.9"/><rect x="114" y="47" width="4" height="23" fill="#05D9E8" fill-opacity="0.9"/><rect x="120" y="63" width="4" height="7" fill="#05D9E8" fill-opacity="0.9"/><rect x="126" y="64" width="4" height="6" fill="#05D9E8" fill-opacity="0.9"/><rect x="132" y="60" width="4" height="10" fill="#05D9E8" fill-opacity="0.9"/><rect x="138" y="61" width="4" height="9" fill="#05D9E8" fill-opacity="0.9"/><rect x="144" y="50" width="4" height="20" fill="#05D9E8" fill-opacity="0.9"/><rect x="150" y="64" width="4" height="6" fill="#05D9E8" fill-opacity="0.9"/><rect x="156" y="60" width="4" height="10" fill="#05D9E8" fill-opacity="0.9"/><rect x="162" y="59" width="4" height="11" fill="#05D9E8" fill-opacity="0.9"/><rect x="168" y="48" width="4" height="22" fill="#05D9E8" fill-opacity="0.9"/><rect x="174" y="61" width="4" height="9" fill="#05D9E8" fill-opacity="0.9"/><rect x="180" y="58" width="4" height="12" fill="#05D9E8" fill-opacity="0.9"/><rect x="186" y="57" width="4" height="13" fill="#05D9E8" fill-opacity="0.9"/><rect x="192" y="62" width="4" height="8" fill="#05D9E8" fill-opacity="0.9"/><rect x="198" y="63" width="4" height="7" fill="#05D9E8" fill-opacity="0.9"/><rect x="204" y="55" width="4" height="15" fill="#05D9E8" fill-opacity="0.9"/><rect x="210" y="66" width="4" height="4" fill="#05D9E8" fill-opacity="0.9"/><rect x="216" y="69" width="4" height="1" fill="#5B6371" fill-opacity="0.4"/><rect x="222" y="61" width="4" height="9" fill="#05D9E8" fill-opacity="0.9"/><rect x="228" y="59" width="4" height="11" fill="#05D9E8" fill-opacity="0.9"/><rect x="234" y="58" width="4" height="12" fill="#05D9E8" fill-opacity="0.9"/><rect x="240" y="57" width="4" height="13" fill="#05D9E8" fill-opacity="0.9"/><rect x="246" y="60" width="4" height="10" fill="#05D9E8" fill-opacity="0.9"/><rect x="252" y="64" width="4" height="6" fill="#05D9E8" fill-opacity="0.9"/><rect x="258" y="65" width="4" height="5" fill="#05D9E8" fill-opacity="0.9"/><rect x="264" y="65" width="4" height="5" fill="#05D9E8" fill-opacity="0.9"/><rect x="270" y="61" width="4" height="9" fill="#05D9E8" fill-opacity="0.9"/><rect x="276" y="59" width="4" height="11" fill="#05D9E8" fill-opacity="0.9"/><rect x="282" y="61" width="4" height="9" fill="#05D9E8" fill-opacity="0.9"/><rect x="288" y="65" width="4" height="5" fill="#05D9E8" fill-opacity="0.9"/><rect x="294" y="51" width="4" height="19" fill="#05D9E8" fill-opacity="0.9"/><rect x="300" y="54" width="4" height="16" fill="#05D9E8" fill-opacity="0.9"/><rect x="306" y="57" width="4" height="13" fill="#05D9E8" fill-opacity="0.9"/><rect x="312" y="53" width="4" height="17" fill="#05D9E8" fill-opacity="0.9"/><rect x="318" y="54" width="4" height="16" fill="#05D9E8" fill-opacity="0.9"/><rect x="324" y="49" width="4" height="21" fill="#05D9E8" fill-opacity="0.9"/><rect x="330" y="14" width="4" height="56" fill="#FF2A6D" fill-opacity="0.9"/><rect x="336" y="37" width="4" height="33" fill="#05D9E8" fill-opacity="0.9"/><rect x="342" y="50" width="4" height="20" fill="#05D9E8" fill-opacity="0.9"/><rect x="348" y="19" width="4" height="51" fill="#FF2A6D" fill-opacity="0.9"/><rect x="354" y="4" width="4" height="66" fill="#FF2A6D" fill-opacity="0.9"/><rect x="360" y="26" width="4" height="44" fill="#FF2A6D" fill-opacity="0.9"/><rect x="366" y="47" width="4" height="23" fill="#05D9E8" fill-opacity="0.9"/><rect x="372" y="49" width="4" height="21" fill="#05D9E8" fill-opacity="0.9"/><rect x="378" y="50" width="4" height="20" fill="#05D9E8" fill-opacity="0.9"/><rect x="384" y="47" width="4" height="23" fill="#05D9E8" fill-opacity="0.9"/><rect x="390" y="35" width="4" height="35" fill="#05D9E8" fill-opacity="0.9"/><rect x="396" y="11" width="4" height="59" fill="#FF2A6D" fill-opacity="0.9"/><rect x="402" y="21" width="4" height="49" fill="#FF2A6D" fill-opacity="0.9"/><rect x="408" y="25" width="4" height="45" fill="#FF2A6D" fill-opacity="0.9"/><rect x="414" y="42" width="4" height="28" fill="#05D9E8" fill-opacity="0.9"/><rect x="420" y="57" width="4" height="13" fill="#05D9E8" fill-opacity="0.9"/><rect x="426" y="46" width="4" height="24" fill="#05D9E8" fill-opacity="0.9"/><rect x="432" y="45" width="4" height="25" fill="#05D9E8" fill-opacity="0.9"/><rect x="438" y="39" width="4" height="31" fill="#05D9E8" fill-opacity="0.9"/><rect x="444" y="46" width="4" height="24" fill="#05D9E8" fill-opacity="0.9"/><rect x="450" y="30" width="4" height="40" fill="#05D9E8" fill-opacity="0.9"/><rect x="456" y="38" width="4" height="32" fill="#05D9E8" fill-opacity="0.9"/><rect x="462" y="21" width="4" height="49" fill="#FF2A6D" fill-opacity="0.9"/><rect x="468" y="45" width="4" height="25" fill="#05D9E8" fill-opacity="0.9"/><rect x="474" y="15" width="4" height="55" fill="#FF2A6D" fill-opacity="0.9"/><rect x="480" y="0" width="4" height="70" fill="#FF2A6D" fill-opacity="0.9"/><rect x="486" y="57" width="4" height="13" fill="#05D9E8" fill-opacity="0.9"/><rect x="492" y="42" width="4" height="28" fill="#05D9E8" fill-opacity="0.9"/><rect x="498" y="48" width="4" height="22" fill="#05D9E8" fill-opacity="0.9"/></g>
    <line x1="0" y1="85" x2="504" y2="85" stroke="#05D9E8" stroke-opacity=".4"/>
  </g>
  <line x1="640" y1="50" x2="640" y2="270" stroke="#05D9E8" stroke-opacity=".25" stroke-dasharray="2 4"/>
  <g transform="translate(700 70)">
    <text font-size="10" fill="#5B6371" letter-spacing="1.5" y="-4">LOADOUT — CODE SIZE, REPOS PUSHED IN 4Y</text>
    <g transform="translate(0 24)">
    <g transform="translate(0 0)">
      <text font-size="13" fill="#D1F7FF">TYPESCRIPT</text>
      <text x="400" font-size="13" fill="#FF2A6D" text-anchor="end">88.8%</text>
      <rect y="8" width="400" height="6" fill="#5B6371" fill-opacity=".35"/>
      <rect y="8" width="400.0" height="6" fill="#FF2A6D"
            class="bar" style="animation-delay:0.4s" filter="url(#glow-soft)"/>
    </g>
    <g transform="translate(0 30)">
      <text font-size="13" fill="#D1F7FF">JAVASCRIPT</text>
      <text x="400" font-size="13" fill="#05D9E8" text-anchor="end">7.1%</text>
      <rect y="8" width="400" height="6" fill="#5B6371" fill-opacity=".35"/>
      <rect y="8" width="31.9" height="6" fill="#05D9E8"
            class="bar" style="animation-delay:0.52s" filter="url(#glow-soft)"/>
    </g>
    <g transform="translate(0 60)">
      <text font-size="13" fill="#D1F7FF">CSS</text>
      <text x="400" font-size="13" fill="#05D9E8" text-anchor="end">2.5%</text>
      <rect y="8" width="400" height="6" fill="#5B6371" fill-opacity=".35"/>
      <rect y="8" width="11.3" height="6" fill="#05D9E8"
            class="bar" style="animation-delay:0.64s" filter="url(#glow-soft)"/>
    </g>
    <g transform="translate(0 90)">
      <text font-size="13" fill="#D1F7FF">SHELL</text>
      <text x="400" font-size="13" fill="#05D9E8" text-anchor="end">1.1%</text>
      <rect y="8" width="400" height="6" fill="#5B6371" fill-opacity=".35"/>
      <rect y="8" width="4.7" height="6" fill="#05D9E8"
            class="bar" style="animation-delay:0.76s" filter="url(#glow-soft)"/>
    </g>
    <g transform="translate(0 120)">
      <text font-size="13" fill="#D1F7FF">DOCKERFILE</text>
      <text x="400" font-size="13" fill="#05D9E8" text-anchor="end">0.4%</text>
      <rect y="8" width="400" height="6" fill="#5B6371" fill-opacity=".35"/>
      <rect y="8" width="1.7" height="6" fill="#05D9E8"
            class="bar" style="animation-delay:0.88s" filter="url(#glow-soft)"/>
    </g></g>
  </g>
  <text x="40" y="278" font-size="11" fill="#5B6371" letter-spacing="1.5">REPOS 42 · STARS 2 · FOLLOWERS 24</text>
  <text x="1160" y="278" font-size="11" fill="#05D9E8" text-anchor="end" letter-spacing="1.5">STATUS: NOMINAL<tspan class="blink" fill="#FF2A6D"> ▌</tspan></text>
  <rect width="1200" height="300" fill="url(#scan)" pointer-events="none"/>
</svg>